<?xml version="1.0" encoding="utf-8"?>
<svg xmlns="http://www.w3.org/2000/svg" style="margin: auto; background: none; display: block; shape-rendering: auto; animation-play-state: running; animation-delay: 0s;" width="280" height="250" preserveAspectRatio="xMidYMid">
<style type="text/css" style="animation-play-state: running; animation-delay: 0s;">
  text {
    text-anchor: middle; font-size: 80px; opacity: 0;
  }
</style>
<g style="transform-origin: 140px 125px; transform: scale(1); animation-play-state: running; animation-delay: 0s;">
<g transform="translate(140,125)" style="animation-play-state: running; animation-delay: 0s;">
  <g transform="translate(0,0)" style="animation-play-state: running; animation-delay: 0s;"><g class="path" style="transform: scale(0.91); transform-origin: -86.6px -7.50533px; animation: 1.33333s linear -0.733333s infinite normal forwards running breath-291fa48b-9d7b-47b1-97a2-3f674a1bb410;"><path d="M2.40-4.72L6.24-11.12L6.24-11.12Q9.12-8.72 12.72-7.20L12.72-7.20L12.72-7.20Q16.32-5.68 21.12-5.68L21.12-5.68L21.12-5.68Q26.88-5.68 30.24-8.08L30.24-8.08L30.24-8.08Q33.60-10.48 33.60-14.56L33.60-14.56L33.60-14.56Q33.60-16.24 33.12-17.68L33.12-17.68L33.12-17.68Q32.64-19.12 31.24-20.44L31.24-20.44L31.24-20.44Q29.84-21.76 27.32-23.08L27.32-23.08L27.32-23.08Q24.80-24.40 20.80-25.92L20.80-25.92L20.80-25.92Q16.48-27.60 13.48-29.24L13.48-29.24L13.48-29.24Q10.48-30.88 8.64-32.84L8.64-32.84L8.64-32.84Q6.80-34.80 6-37.16L6-37.16L6-37.16Q5.20-39.52 5.20-42.56L5.20-42.56L5.20-42.56Q5.20-45.52 6.44-48.16L6.44-48.16L6.44-48.16Q7.68-50.80 10.12-52.76L10.12-52.76L10.12-52.76Q12.56-54.72 16.12-55.84L16.12-55.84L16.12-55.84Q19.68-56.96 24.24-56.96L24.24-56.96L24.24-56.96Q29.20-56.96 33.12-55.96L33.12-55.96L33.12-55.96Q37.04-54.96 40.88-53.12L40.88-53.12L38.08-46.64L38.08-46.64Q35.36-48.24 31.72-49.32L31.72-49.32L31.72-49.32Q28.08-50.40 24.08-50.40L24.08-50.40L24.08-50.40Q18.80-50.40 15.76-48.36L15.76-48.36L15.76-48.36Q12.72-46.32 12.72-42.96L12.72-42.96L12.72-42.96Q12.72-41.36 13.16-40.12L13.16-40.12L13.16-40.12Q13.60-38.88 14.92-37.72L14.92-37.72L14.92-37.72Q16.24-36.56 18.60-35.36L18.60-35.36L18.60-35.36Q20.96-34.16 24.88-32.72L24.88-32.72L24.88-32.72Q29.52-30.96 32.72-29.12L32.72-29.12L32.72-29.12Q35.92-27.28 37.84-25.20L37.84-25.20L37.84-25.20Q39.76-23.12 40.60-20.72L40.60-20.72L40.60-20.72Q41.44-18.32 41.44-15.44L41.44-15.44L41.44-15.44Q41.44-11.52 39.92-8.48L39.92-8.48L39.92-8.48Q38.40-5.44 35.72-3.32L35.72-3.32L35.72-3.32Q33.04-1.20 29.28-0.12L29.28-0.12L29.28-0.12Q25.52 0.96 21.12 0.96L21.12 0.96L21.12 0.96Q15.28 0.96 10.48-0.60L10.48-0.60L10.48-0.60Q5.68-2.16 2.40-4.72L2.40-4.72" fill="#a9a9a9" stroke="none" stroke-width="none" transform="translate(-108.52000617980957,20.494664335250853)" style="fill: rgb(169, 169, 169); animation-play-state: running; animation-delay: 0s;"></path></g><g class="path" style="transform: scale(0.91); transform-origin: -31.16px -0.505335px; animation: 1.33333s linear -0.586667s infinite normal forwards running breath-291fa48b-9d7b-47b1-97a2-3f674a1bb410;"><path d="M91.04-8.16L101.68-42L108.08-39.68L94.88 0L86.96 0L77.36-30.96L67.68 0L59.76 0L46.64-39.68L53.28-42L64-8.16L73.76-38.64L81.52-38.64L91.04-8.16" fill="#a9a9a9" stroke="none" stroke-width="none" transform="translate(-108.52000617980957,20.494664335250853)" style="fill: rgb(169, 169, 169); animation-play-state: running; animation-delay: 0s;"></path></g><g class="path" style="transform: scale(0.91); transform-origin: 11.56px -0.305334px; animation: 1.33333s linear -0.44s infinite normal forwards running breath-291fa48b-9d7b-47b1-97a2-3f674a1bb410;"><path d="M123.68-41.60L123.68 0L116.48 0L116.48-41.60L123.68-41.60" fill="#a9a9a9" stroke="none" stroke-width="none" transform="translate(-108.52000617980957,20.494664335250853)" style="fill: rgb(169, 169, 169); animation-play-state: running; animation-delay: 0s;"></path></g><g class="path" style="transform: scale(0.91); transform-origin: 11.56px -33.2653px; animation: 1.33333s linear -0.293333s infinite normal forwards running breath-291fa48b-9d7b-47b1-97a2-3f674a1bb410;"><path d="M120.08-48.72L120.08-48.72L120.08-48.72Q118-48.72 116.52-50.20L116.52-50.20L116.52-50.20Q115.04-51.68 115.04-53.76L115.04-53.76L115.04-53.76Q115.04-56.08 116.40-57.44L116.40-57.44L116.40-57.44Q117.76-58.80 120.08-58.80L120.08-58.80L120.08-58.80Q122.16-58.80 123.64-57.32L123.64-57.32L123.64-57.32Q125.12-55.84 125.12-53.76L125.12-53.76L125.12-53.76Q125.12-51.44 123.76-50.08L123.76-50.08L123.76-50.08Q122.40-48.72 120.08-48.72" fill="#a9a9a9" stroke="none" stroke-width="none" transform="translate(-108.52000617980957,20.494664335250853)" style="fill: rgb(169, 169, 169); animation-play-state: running; animation-delay: 0s;"></path></g><g class="path" style="transform: scale(0.91); transform-origin: 45.88px 8.01467px; animation: 1.33333s linear -0.146667s infinite normal forwards running breath-291fa48b-9d7b-47b1-97a2-3f674a1bb410;"><path d="M133.28-36L134.80-41.60L134.80-41.60Q142.16-41.60 144.00-35.76L144.00-35.76L144.00-35.76Q144.56-36.64 145.72-37.84L145.72-37.84L145.72-37.84Q146.88-39.04 148.56-40.08L148.56-40.08L148.56-40.08Q150.24-41.12 152.40-41.84L152.40-41.84L152.40-41.84Q154.56-42.56 157.20-42.56L157.20-42.56L157.20-42.56Q160.80-42.56 164.12-41.12L164.12-41.12L164.12-41.12Q167.44-39.68 169.96-36.96L169.96-36.96L169.96-36.96Q172.48-34.24 174-30.24L174-30.24L174-30.24Q175.52-26.24 175.52-21.20L175.52-21.20L175.52-21.20Q175.52-16.24 174.04-12.16L174.04-12.16L174.04-12.16Q172.56-8.08 170.04-5.16L170.04-5.16L170.04-5.16Q167.52-2.24 164.24-0.64L164.24-0.64L164.24-0.64Q160.96 0.96 157.36 0.96L157.36 0.96L157.36 0.96Q153.60 0.96 150.44-0.52L150.44-0.52L150.44-0.52Q147.28-2 145.20-3.92L145.20-3.92L145.20 17.60L138.00 17.60L138.00-30.96L138.00-30.96Q138.00-33.68 136.68-34.84L136.68-34.84L136.68-34.84Q135.36-36 133.28-36L133.28-36zM168.16-20.96L168.16-20.96L168.16-20.96Q168.16-24.56 167.16-27.40L167.16-27.40L167.16-27.40Q166.16-30.24 164.44-32.24L164.44-32.24L164.44-32.24Q162.72-34.24 160.44-35.28L160.44-35.28L160.44-35.28Q158.16-36.32 155.60-36.32L155.60-36.32L155.60-36.32Q152.16-36.32 149.40-34.60L149.40-34.60L149.40-34.60Q146.64-32.88 145.20-30.88L145.20-30.88L145.20-10.40L145.20-10.40Q147.28-8.24 149.96-6.84L149.96-6.84L149.96-6.84Q152.64-5.44 155.92-5.44L155.92-5.44L155.92-5.44Q158.64-5.44 160.88-6.56L160.88-6.56L160.88-6.56Q163.12-7.68 164.76-9.72L164.76-9.72L164.76-9.72Q166.40-11.76 167.28-14.60L167.28-14.60L167.28-14.60Q168.16-17.44 168.16-20.96" fill="#a9a9a9" stroke="none" stroke-width="none" transform="translate(-108.52000617980957,20.494664335250853)" style="fill: rgb(169, 169, 169); animation-play-state: running; animation-delay: 0s;"></path></g><g class="path" style="transform: scale(0.91); transform-origin: 92.56px -0.305336px; animation: 1.33333s linear 0s infinite normal forwards running breath-291fa48b-9d7b-47b1-97a2-3f674a1bb410;"><path d="M219.20-17.84L190.08-17.84L190.08-17.84Q190.80-12 194.16-8.72L194.16-8.72L194.16-8.72Q197.52-5.44 203.04-5.44L203.04-5.44L203.04-5.44Q206.64-5.44 209.52-6.20L209.52-6.20L209.52-6.20Q212.40-6.96 215.04-8.16L215.04-8.16L216.72-2L216.72-2Q213.84-0.64 210.24 0.16L210.24 0.16L210.24 0.16Q206.64 0.96 202.16 0.96L202.16 0.96L202.16 0.96Q197.68 0.96 194.08-0.52L194.08-0.52L194.08-0.52Q190.48-2 187.96-4.76L187.96-4.76L187.96-4.76Q185.44-7.52 184.08-11.56L184.08-11.56L184.08-11.56Q182.72-15.60 182.72-20.80L182.72-20.80L182.72-20.80Q182.72-25.44 184.08-29.44L184.08-29.44L184.08-29.44Q185.44-33.44 187.92-36.36L187.92-36.36L187.92-36.36Q190.40-39.28 193.84-40.92L193.84-40.92L193.84-40.92Q197.28-42.56 201.52-42.56L201.52-42.56L201.52-42.56Q206.00-42.56 209.36-41.04L209.36-41.04L209.36-41.04Q212.72-39.52 214.96-36.88L214.96-36.88L214.96-36.88Q217.20-34.24 218.32-30.72L218.32-30.72L218.32-30.72Q219.44-27.20 219.44-23.28L219.44-23.28L219.44-23.28Q219.44-20.48 219.20-17.84L219.20-17.84zM201.36-36.32L201.36-36.32L201.36-36.32Q196.64-36.32 193.64-33.12L193.64-33.12L193.64-33.12Q190.64-29.92 190.00-23.68L190.00-23.68L212.80-23.68L212.80-23.68Q212.80-29.76 209.76-33.04L209.76-33.04L209.76-33.04Q206.72-36.32 201.36-36.32" fill="#a9a9a9" stroke="none" stroke-width="none" transform="translate(-108.52000617980957,20.494664335250853)" style="fill: rgb(169, 169, 169); animation-play-state: running; animation-delay: 0s;"></path></g></g>
</g>
</g>
<style id="breath-291fa48b-9d7b-47b1-97a2-3f674a1bb410" data-anikit="">@keyframes breath-291fa48b-9d7b-47b1-97a2-3f674a1bb410
{
  0% {
    animation-timing-function: cubic-bezier(0.9647,0.2413,-0.0705,0.7911);
    transform: scale(0.9099999999999999);
  }
  51% {
    animation-timing-function: cubic-bezier(0.9226,0.2631,-0.0308,0.7628);
    transform: scale(1.02994);
  }
  100% {
    transform: scale(0.9099999999999999);
  }
}</style></svg>